<svg width="43" height="44" viewBox="0 0 43 44" fill="none" xmlns="http://www.w3.org/2000/svg">
<path d="M21.4629 0.570312L24.6966 8.09218L30.8736 2.71824L30.5234 10.8982L38.4204 8.73661L34.5557 15.9546L42.6085 17.4334L35.9948 22.2598L42.6085 27.0861L34.5557 28.5649L38.4204 35.7829L30.5234 33.6213L30.8736 41.8013L24.6966 36.4274L21.4629 43.9492L18.2292 36.4274L12.0522 41.8013L12.4024 33.6213L4.50539 35.7829L8.37007 28.5649L0.317238 27.0861L6.93096 22.2598L0.317238 17.4334L8.37007 15.9546L4.50539 8.73661L12.4024 10.8982L12.0522 2.71824L18.2292 8.09218L21.4629 0.570312Z" fill="#FF9900"/>
</svg>
